<svg xmlns="http://www.w3.org/2000/svg" width="28.889" height="23.418" viewBox="0 0 28.889 23.418">
  <path id="Path_23461" data-name="Path 23461" d="M32.41,2H13.477a.5.5,0,0,0-.5.5V13.771a5.974,5.974,0,1,0,2.989,5.17h5.481V21.93H17.961a.5.5,0,0,0-.5.5v2.491a.5.5,0,0,0,.5.5h9.965a.5.5,0,0,0,.5-.5V22.428a.5.5,0,0,0-.5-.5H24.438V18.94H32.41a.5.5,0,0,0,.5-.5V2.5A.5.5,0,0,0,32.41,2ZM9.989,23.923a4.982,4.982,0,1,1,3.72-8.286c.046.052.095.1.139.156s.071.1.107.142c.068.091.137.181.2.278.016.025.031.05.047.076.075.121.149.244.214.372.011.02.02.042.03.062.061.123.118.246.168.372.009.023.017.047.026.07.05.124.092.249.129.377.008.027.014.055.021.083.035.126.067.253.091.382,0,.023.006.046.01.069.024.136.045.272.057.41h0c.013.149.023.3.023.453A4.988,4.988,0,0,1,9.989,23.923Zm17.439-1v1.495H18.459V22.926Zm-4.982-1V18.94h1V21.93Zm9.467-3.986H15.882c0-.024-.011-.05-.015-.072-.019-.108-.043-.215-.069-.321-.016-.07-.034-.14-.054-.209-.03-.11-.063-.218-.1-.326-.008-.022-.013-.046-.021-.069H31.912Zm0-1.993H15.163c-.035-.061-.075-.118-.112-.177s-.083-.139-.129-.205c-.1-.149-.207-.29-.319-.427l-.01-.011c-.114-.139-.236-.271-.362-.4l-.05-.05c-.068-.067-.134-.135-.2-.2V3H31.912Z" transform="translate(-4.02 -2)" fill="#b43ad8"/>
</svg>
